# xmcd
#
# Track frame offsets: 
#        150
#        11022
#        20987
#        32403
#        44256
#        57584
#        69293
#        79021
#        88466
#        99388
#        109162
#        119663
#        132251
#        143798
#        155151
#        165205
#        177417
#        187077
#        197602
#        209920
#        223360
#        234148
#        245480
#        254666
#        264782
#        274961
#        285785
#        296464
#        308232
#        320313
#        331134
#
# Disc length: 4570 seconds
#
# Revision: 0
# Processed by: cddbd v1.5.2PL0 Copyright (c) Steve Scherf et al.
# Submitted via: ExactAudioCopy v1.0b3
#
DISCID=d311d81f
DTITLE=Johnny Horton - The Singing Fisherman [Disc 3]
DYEAR=2014
DGENRE=Country
TTITLE0=First Train Headin' South [1952]
TTITLE1=The Rest Of You Life [1952]
TTITLE2=(I Wished For An Angel) The Devil Sent Me You [1952]
TTITLE3=This Won't Be The First Time [1952]
TTITLE4=Child's Side Of Life [1952]
TTITLE5=I Won't Forget [1952]
TTITLE6=Egg Money [2014]
TTITLE7=S.S. Lureline [1953]
TTITLE8=The Mansion You Stole [1953]
TTITLE9=I Won't Get Dreamy Eyed [1953]
TTITLE10=Tennesse Jive [1953]
TTITLE11=(Another Woman Wears) My Wedding Ring [1953]
TTITLE12=You, You, You [1953]
TTITLE13=All For The Love Of A Girl [1953]
TTITLE14=Two Red Lips And Warm Red Wine [1953]
TTITLE15=Back To My Back Street [1991]
TTITLE16=Broken Hearted Gypsy [1953]
TTITLE17=Move Down The Line [1954]
TTITLE18=The Train With The Rhumba Beat [1954]
TTITLE19=There'll Never Be Another Mary [1954]
TTITLE20=No True Love [1954]
TTITLE21=The Devil Made A Masterpiece [1959]
TTITLE22=Ha Ha And Moonface [1954]
TTITLE23=You Cry In The Door Of Your Mansion [1954]
TTITLE24=Where Are You [1991]
TTITLE25=Meant So Little To You [1991]
TTITLE26=Ridin' The Sunshine Special [1955]
TTITLE27=Hey, Sweet Thang [1955]
TTITLE28=Journey With No End [1955]
TTITLE29=Big Wheels Rollin' [1955]
TTITLE30=You Don't Move Me Baby Anymore [1955]
EXTD=
EXTT0=
EXTT1=
EXTT2=
EXTT3=
EXTT4=
EXTT5=
EXTT6=
EXTT7=
EXTT8=
EXTT9=
EXTT10=
EXTT11=
EXTT12=
EXTT13=
EXTT14=
EXTT15=
EXTT16=
EXTT17=
EXTT18=
EXTT19=
EXTT20=
EXTT21=
EXTT22=
EXTT23=
EXTT24=
EXTT25=
EXTT26=
EXTT27=
EXTT28=
EXTT29=
EXTT30=
PLAYORDER=
